<svg fill="currentColor" viewBox="0 0 91 28" xmlns="http://www.w3.org/2000/svg">
  <g fill-rule="evenodd">
    <g fill-rule="nonzero">
      <circle fill="#639" cx="14" cy="14" r="14" />
      <g fill="#FFF">
        <path
          d="M6.2 21.8C4.1 19.7 3 16.9 3 14.2L13.9 25c-2.8-.1-5.6-1.1-7.7-3.2zM16.4 24.7L3.3 11.6C4.4 6.7 8.8 3 14 3c3.7 0 6.9 1.8 8.9 4.5l-1.5 1.3C19.7 6.5 17 5 14 5c-3.9 0-7.2 2.5-8.5 6L17 22.5c2.9-1 5.1-3.5 5.8-6.5H18v-2h7c0 5.2-3.7 9.6-8.6 10.7z"
        />
      </g>
    </g>
    <path
      d="M89.962 8.652L87.2 0h-8.922l2.758 8.652h8.925zM78.278 0h-8.92l-2.756 8.652h8.92L78.278 0zM66.602 8.652c-1.644 5.16.157 10.812 4.46 14L73.818 14l-7.216-5.348zm23.354 0L82.735 14l2.756 8.652c4.307-3.186 6.112-8.838 4.47-14h-.004zm-18.894 14L78.28 28l7.216-5.348-7.218-5.347-7.216 5.347z"
      fill="#EB5424"
      fill-rule="nonzero"
    />
    <path fill="#212026" d="M42 13h10v1.5H42z" />
    <path fill="#212026" d="M47.75 8.75v10h-1.5v-10z" />
  </g>
</svg>
